<mxfile host="app.diagrams.net" modified="2024-04-20T14:23:41.894Z" agent="Mozilla/5.0 (Windows NT 10.0; Win64; x64) AppleWebKit/537.36 (KHTML, like Gecko) Chrome/117.0.0.0 Safari/537.36 Edg/117.0.2045.43" version="24.2.7" etag="O8ZyfOYJ4vXrSaUaI4IJ" type="github">
  <diagram name="PÃ¡gina-1" id="em5ghtpq82xFfGyIh8iH">
    <mxGraphModel>
      <root>
        <mxCell id="0" />
        <mxCell id="1" parent="0" />
      </root>
    </mxGraphModel>
  </diagram>
</mxfile>
